<svg xmlns="http://www.w3.org/2000/svg" xml:space="preserve" viewBox="0 0 2200 431.3">
  <path d="M2189.7 366c12.1 0 22 9.9 22 22s-9.9 22-22 22-22-9.9-22-22 9.8-22 22-22m0-6c-15.5 0-28 12.5-28 28s12.5 28 28 28 28-12.5 28-28-12.6-28-28-28zm74.6 6c12.1 0 22 9.9 22 22s-9.9 22-22 22-22-9.9-22-22 9.9-22 22-22m0-6c-15.5 0-28 12.5-28 28s12.5 28 28 28 28-12.5 28-28-12.5-28-28-28zm-149.3 6c12.1 0 22 9.9 22 22s-9.9 22-22 22-22-9.9-22-22 9.9-22 22-22m0-6c-15.5 0-28 12.5-28 28s12.5 28 28 28 28-12.5 28-28-12.5-28-28-28z"/>
  <path d="M2115 399.9c-6.5 0-11.9-5.3-11.9-11.9s5.3-11.9 11.9-11.9 11.9 5.3 11.9 11.9-5.4 11.9-11.9 11.9zm232-120c7.7 0 14 6.3 14 14v16c0 7.7-6.3 14-14 14h-240c-7.7 0-14-6.3-14-14v-16c0-7.7 6.3-14 14-14h240m0-6h-240c-11 0-20 9-20 20v16c0 11 9 20 20 20h240c11 0 20-9 20-20v-16c0-11.1-9-20-20-20z"/>
  <path d="M2337.7 311.6c-3.3 0-6.6-1.2-9-3.7-2.4-2.4-3.7-5.6-3.7-9s1.3-6.6 3.7-9c2.4-2.4 5.6-3.7 9-3.7s6.6 1.3 9 3.7c5 5 5 13.1 0 18.1-2.4 2.3-5.7 3.6-9 3.6zm6.9-5.9zm-6.9-13.7c-1.8 0-3.5.7-4.8 2-1.3 1.3-2 3-2 4.8s.7 3.5 2 4.8c2.7 2.7 7 2.7 9.6 0 2.7-2.7 2.7-7 0-9.6-1.3-1.3-3-2-4.8-2z"/>
  <path d="M2321.7 317.8c-.8 0-1.5-.3-2.1-.9-1.2-1.2-1.2-3.1 0-4.2l8.5-8.5c1.2-1.2 3.1-1.2 4.2 0 1.2 1.2 1.2 3.1 0 4.2l-8.5 8.5c-.6.6-1.3.9-2.1.9zm-688-37.9c12.1 0 22 9.9 22 22s-9.9 22-22 22-22-9.9-22-22 9.8-22 22-22m0-6c-15.5 0-28 12.5-28 28s12.5 28 28 28 28-12.5 28-28-12.6-28-28-28zm74.6 6c12.1 0 22 9.9 22 22s-9.9 22-22 22-22-9.9-22-22 9.9-22 22-22m0-6c-15.5 0-28 12.5-28 28s12.5 28 28 28 28-12.5 28-28-12.5-28-28-28zm-149.3 6c12.1 0 22 9.9 22 22s-9.9 22-22 22-22-9.9-22-22 9.9-22 22-22m0-6c-15.5 0-28 12.5-28 28s12.5 28 28 28 28-12.5 28-28-12.5-28-28-28z"/>
  <path d="M1559 313.8c-6.5 0-11.9-5.3-11.9-11.9s5.3-11.9 11.9-11.9 11.9 5.3 11.9 11.9-5.4 11.9-11.9 11.9zm302-73c-9.4 0-17-7.6-17-17v-16c0-9.4 7.6-17 17-17h16c9.4 0 17 7.6 17 17v16c0 9.4-7.6 17-17 17h-16zm-5.5-33c-.9 0-1.7.2-2.5.5-1.5.7-2.6 1.9-3.1 3.4-.6 1.5-.5 3.1.2 4.6l5 11c.8 1.7 2.3 2.9 4.1 3.4.4.1.9.2 1.4.2 1.4 0 2.7-.5 3.8-1.4l22-18c2.6-2.1 2.9-5.9.8-8.4-1.1-1.4-2.8-2.2-4.6-2.2-1.4 0-2.7.5-3.8 1.4l-16 13.1-1.8-3.9c-1-2.3-3.2-3.7-5.5-3.7z"/>
  <path d="M1877 193.8c5.1 0 9.5 2.7 12 6.7-1.7-1.7-4-2.7-6.5-2.7-2.1 0-4.1.7-5.7 2l-12.9 10.6-.2-.4c-1.5-3.2-4.7-5.3-8.2-5.3-1.3 0-2.5.3-3.7.8-2.2 1-3.9 2.8-4.7 5 0 .1 0 .1-.1.2v-3c0-7.7 6.3-14 14-14h16m14 16v14c0 7.7-6.3 14-14 14h-16c-7.7 0-14-6.3-14-14v-7c.1.3.2.5.3.8l5 11c1.1 2.5 3.4 4.4 6.1 5 .7.2 1.4.2 2 .2 2.1 0 4.1-.7 5.7-2l22-18c1.4-1 2.4-2.4 2.9-4m-14-21.9h-16c-11 0-20 9-20 20v16c0 11 9 20 20 20h16c11 0 20-9 20-20v-16c0-11.1-9-20-20-20zm-15.4 32.2 19-15.5c.6-.5 1.2-.7 1.9-.7.9 0 1.7.4 2.3 1.1 1 1.3.9 3.2-.4 4.2l-22 18c-.5.4-1.2.7-1.9.7-.2 0-.5 0-.7-.1-.9-.2-1.7-.8-2-1.7l-5-11c-.7-1.5 0-3.3 1.5-4 .4-.2.8-.3 1.2-.3 1.1 0 2.2.7 2.7 1.8l3.4 7.5zm175.4 60c7.7 0 14 6.3 14 14v102c0 7.7-6.3 14-14 14h-251c-7.7 0-14-6.3-14-14V294c0-7.7 6.3-14 14-14h251m0-6h-251c-11 0-20 9-20 20v102c0 11 9 20 20 20h251c11 0 20-9 20-20V294c0-11-9-20-20-20z"/>
  <path d="M1998.1 392.5c-.9 0-1.7-.2-2.4-.6-.7-.4-1.3-.9-1.8-1.5s-.9-1.4-1.2-2.3-.4-1.8-.4-2.8.1-2 .4-2.8.7-1.6 1.2-2.3c.5-.6 1.1-1.1 1.8-1.5.7-.4 1.5-.5 2.4-.5s1.7.2 2.4.5c.7.4 1.3.9 1.8 1.5s.9 1.4 1.2 2.3c.3.9.4 1.8.4 2.8s-.1 2-.4 2.8c-.3.9-.7 1.6-1.2 2.3-.5.6-1.1 1.1-1.8 1.5-.8.4-1.6.6-2.4.6zm0-2.5c.5 0 .9-.1 1.3-.3s.7-.6 1-1c.3-.4.5-.9.6-1.5.1-.6.2-1.2.2-1.9s-.1-1.3-.2-1.9c-.1-.6-.3-1.1-.6-1.5-.3-.4-.6-.7-1-1s-.8-.3-1.3-.3-.9.1-1.3.3-.7.6-1 1c-.3.4-.5.9-.6 1.5s-.2 1.2-.2 1.9.1 1.3.2 1.9c.1.6.3 1.1.6 1.5s.6.7 1 1 .8.3 1.3.3zm7.1 2.2 5.9-14.3h2.6l-5.9 14.3h-2.6zm14-4.9c-.5 0-1-.1-1.5-.3s-.9-.5-1.3-.9-.7-.9-.9-1.4-.3-1.1-.3-1.8.1-1.3.4-1.9c.3-.6.6-1.1 1.1-1.5.4-.4 1-.7 1.5-1 .6-.2 1.2-.3 1.8-.3.7 0 1.4.1 2 .4.6.3 1.1.6 1.6 1 .4.4.8.9 1 1.5.2.6.3 1.2.3 1.8 0 .9-.2 1.8-.6 2.5-.4.8-.8 1.5-1.4 2.3l-3.3 4.7-2-1.4 2.8-4-.1-.1c-.3.3-.7.4-1.1.4zm.8-6.7c-.3 0-.6.1-.9.2s-.5.3-.7.5c-.2.2-.4.4-.5.7s-.2.6-.2.9c0 .3.1.6.2.9s.3.5.5.7c.2.2.5.3.7.5.3.1.6.2.9.2.3 0 .6-.1.9-.2.3-.1.5-.3.8-.5.2-.2.4-.4.5-.7s.2-.6.2-.9c0-.3-.1-.6-.2-.9s-.3-.5-.5-.7c-.2-.2-.5-.3-.8-.5-.4-.1-.6-.2-.9-.2zm12.3 11.9c-.9 0-1.7-.2-2.4-.6-.7-.4-1.3-.9-1.8-1.5s-.9-1.4-1.2-2.3c-.3-.9-.4-1.8-.4-2.8s.1-2 .4-2.8c.3-.9.7-1.6 1.2-2.3.5-.6 1.1-1.1 1.8-1.5.7-.4 1.5-.5 2.4-.5s1.7.2 2.4.5c.7.4 1.3.9 1.8 1.5s.9 1.4 1.2 2.3.4 1.8.4 2.8-.1 2-.4 2.8-.7 1.6-1.2 2.3c-.5.6-1.1 1.1-1.8 1.5-.8.4-1.6.6-2.4.6zm0-2.5c.5 0 .9-.1 1.3-.3s.7-.6 1-1c.3-.4.5-.9.6-1.5.1-.6.2-1.2.2-1.9s-.1-1.3-.2-1.9c-.1-.6-.3-1.1-.6-1.5-.3-.4-.6-.7-1-1s-.8-.3-1.3-.3-.9.1-1.3.3-.7.6-1 1c-.3.4-.5.9-.6 1.5s-.2 1.2-.2 1.9.1 1.3.2 1.9c.1.6.3 1.1.6 1.5.3.4.6.7 1 1s.8.3 1.3.3zm4.7-195.9c7.7 0 14 6.3 14 14v16c0 7.7-6.3 14-14 14h-89.5c-7.7 0-14-6.3-14-14v-16c0-7.7 6.3-14 14-14h89.5m0-6h-89.5c-11 0-20 9-20 20v16c0 11 9 20 20 20h89.5c11 0 20-9 20-20v-16c0-11-9-20-20-20z"/>
  <path d="M2032.1 225.2c-1.2-.2-2.3-.7-3.3-1.4-1-.8-1.6-1.9-2.1-3.3l2.8-1.2c.2.7.5 1.2.9 1.8s1 .9 1.6 1.1v-4.7l-.2-.1c-.6-.2-1.2-.5-1.7-.8-.5-.3-1-.7-1.4-1.1-.4-.4-.7-.9-1-1.4s-.4-1.1-.4-1.7c0-.6.1-1.1.3-1.7.2-.5.5-1 .9-1.4s.9-.8 1.5-1c.6-.3 1.2-.4 1.9-.5v-2.1h2.2v2.2c.7.1 1.2.3 1.7.5s.9.5 1.3.8c.4.3.6.7.8 1 .2.4.4.7.5 1.1l-2.8 1.2c-.1-.3-.3-.6-.5-.9-.2-.3-.6-.5-1-.7v4.4c.7.3 1.3.6 1.9.9.6.3 1.1.7 1.5 1.1.4.4.7.8.9 1.3.2.5.3 1.1.3 1.7 0 .7-.1 1.4-.4 2-.3.6-.6 1.1-1 1.5-.4.4-.9.7-1.5 1s-1.2.4-1.8.5v2.2h-2.2v-2.3zm-1.6-12.9c0 .4.1.7.4 1s.7.6 1.2.9v-3.6c-.5.1-.9.3-1.2.6s-.4.7-.4 1.1zm5.3 8c0-.4-.1-.8-.3-1.1-.2-.3-.6-.6-1.2-.8v3.8c.4-.1.8-.4 1.1-.7.3-.4.4-.8.4-1.2zM1791 193.8c7.7 0 14 6.3 14 14v16c0 7.7-6.3 14-14 14h-240c-7.7 0-14-6.3-14-14v-16c0-7.7 6.3-14 14-14h240m0-6h-240c-11 0-20 9-20 20v16c0 11 9 20 20 20h240c11 0 20-9 20-20v-16c0-11.1-9-20-20-20z"/>
  <path d="M1781.7 225.5c-3.3 0-6.6-1.2-9-3.7-2.4-2.4-3.7-5.6-3.7-9s1.3-6.6 3.7-9c2.4-2.4 5.6-3.7 9-3.7s6.6 1.3 9 3.7c5 5 5 13.1 0 18.1-2.4 2.3-5.7 3.6-9 3.6zm6.9-5.9zm-6.9-13.7c-1.8 0-3.5.7-4.8 2-1.3 1.3-2 3-2 4.8s.7 3.5 2 4.8c2.7 2.7 7 2.7 9.6 0 2.7-2.7 2.7-7 0-9.6-1.3-1.3-3-2-4.8-2z"/>
  <path d="M1765.7 231.7c-.8 0-1.5-.3-2.1-.9-1.2-1.2-1.2-3.1 0-4.2l8.5-8.5c1.2-1.2 3.1-1.2 4.2 0 1.2 1.2 1.2 3.1 0 4.2l-8.5 8.5c-.6.6-1.3.9-2.1.9zM1716 360h-165c-11 0-20 9-20 20v16c0 11 9 20 20 20h165c11 0 20-9 20-20v-16c0-11-9-20-20-20zm-118.4 35.2c-.4.8-1 1.4-1.6 1.9-.7.5-1.4.8-2.2 1.1s-1.6.4-2.4.4c-.9 0-1.7-.1-2.5-.4s-1.5-.6-2.2-1.1c-.7-.5-1.2-1.1-1.7-1.8s-.9-1.5-1.1-2.5l3.6-1.4c.3 1 .7 1.8 1.4 2.5s1.5 1 2.6 1c.4 0 .8-.1 1.1-.2.4-.1.7-.3 1-.4.3-.2.5-.4.7-.7.2-.3.3-.6.3-1s-.1-.7-.2-1c-.1-.3-.4-.6-.7-.8-.3-.3-.7-.5-1.2-.8-.5-.2-1.1-.5-1.8-.8l-1.2-.4c-.5-.2-1.1-.4-1.6-.8-.6-.3-1-.7-1.5-1.1-.4-.4-.8-1-1.1-1.6-.3-.6-.4-1.3-.4-2.1s.2-1.5.5-2.2c.3-.7.7-1.3 1.3-1.8.6-.5 1.3-.9 2-1.2.8-.3 1.7-.4 2.6-.4 1 0 1.9.1 2.6.4.7.3 1.4.6 1.9 1s.9.9 1.2 1.4.6 1 .7 1.4l-3.3 1.4c-.2-.6-.5-1.1-1-1.5-.5-.4-1.2-.7-2-.7s-1.5.2-2 .6c-.5.4-.8.9-.8 1.5s.3 1.1.8 1.5c.5.4 1.4.8 2.5 1.2l1.3.4c.8.3 1.5.6 2.2 1 .7.4 1.2.8 1.7 1.3s.8 1.1 1.1 1.7c.3.6.4 1.4.4 2.2-.4 1.1-.6 2-1 2.8zm18.9-5.1c0 1.3-.2 2.4-.5 3.4s-.9 1.9-1.6 2.7c-.7.7-1.5 1.3-2.5 1.7-1 .4-2 .6-3.2.6-1.2 0-2.2-.2-3.2-.6-1-.4-1.8-.9-2.5-1.7-.7-.7-1.2-1.6-1.6-2.6-.4-1-.6-2.2-.6-3.5V378h3.8v12.3c0 .7.1 1.3.3 1.8.2.6.4 1 .8 1.5.3.4.8.7 1.3 1 .5.2 1.1.3 1.7.3.7 0 1.3-.1 1.8-.3s.9-.6 1.3-1c.3-.4.6-.9.8-1.5.2-.6.3-1.2.3-1.8V378h3.8v12.1zm17.7 4.7c-.3.7-.8 1.3-1.4 1.8-.6.5-1.3.9-2.1 1.1-.8.3-1.6.4-2.6.4h-8.1V378h7.8c.9 0 1.7.1 2.4.4.7.3 1.4.6 1.9 1.1.6.5 1 1 1.3 1.7.3.6.5 1.3.5 2 0 1.1-.3 2-.8 2.7-.5.7-1.2 1.3-1.9 1.6v.2c1 .4 1.9 1 2.5 1.8.6.8.9 1.8.9 3 .2.8 0 1.6-.4 2.3zm23.4 3.3h-3.8v-9.9l.2-3.4h-.2l-5.1 9h-2.3l-5.1-9h-.2l.2 3.4v9.9h-3.7V378h3.7l6.1 10.6h.2l6.1-10.6h3.8v20.1zm7.9 0h-3.8V378h3.8v20.1zm17.6-16.5h-5.6v16.5h-3.8v-16.5h-5.6V378h15v3.6z"/>
  <path d="M1629.6 385.5c.5-.5.7-1 .7-1.7s-.2-1.2-.7-1.7c-.5-.5-1.1-.7-1.9-.7h-3.9v4.8h3.8c.9 0 1.6-.3 2-.7zm-1.7 3.9h-4.1v5.2h4.2c1 0 1.7-.2 2.2-.7.5-.5.8-1.1.8-1.8s-.3-1.4-.8-1.9-1.3-.8-2.3-.8zm-229.6-23.7c12.1 0 22 9.9 22 22s-9.9 22-22 22-22-9.9-22-22 9.9-22 22-22m0-6c-15.5 0-28 12.5-28 28s12.5 28 28 28 28-12.5 28-28c0-15.4-12.5-28-28-28zm74.7 6c12.1 0 22 9.9 22 22s-9.9 22-22 22-22-9.9-22-22 9.9-22 22-22m0-6c-15.5 0-28 12.5-28 28s12.5 28 28 28 28-12.5 28-28c0-15.4-12.5-28-28-28z"/>
  <path d="M1473 375.9c6.5 0 11.9 5.3 11.9 11.9s-5.3 11.9-11.9 11.9-11.9-5.3-11.9-11.9 5.4-11.9 11.9-11.9zm-395.3-182.1c12.1 0 22 9.9 22 22s-9.9 22-22 22-22-9.9-22-22 9.8-22 22-22m0-6c-15.5 0-28 12.5-28 28s12.5 28 28 28 28-12.5 28-28-12.6-28-28-28zm74.6 6c12.1 0 22 9.9 22 22s-9.9 22-22 22-22-9.9-22-22 9.9-22 22-22m0-6c-15.5 0-28 12.5-28 28s12.5 28 28 28 28-12.5 28-28-12.5-28-28-28zm-149.3 6c12.1 0 22 9.9 22 22s-9.9 22-22 22-22-9.9-22-22 9.9-22 22-22m0-6c-15.5 0-28 12.5-28 28s12.5 28 28 28 28-12.5 28-28-12.5-28-28-28z"/>
  <path d="M1003 227.7c-6.5 0-11.9-5.3-11.9-11.9s5.3-11.9 11.9-11.9 11.9 5.3 11.9 11.9-5.4 11.9-11.9 11.9zm8 138c7.7 0 14 6.3 14 14v16c0 7.7-6.3 14-14 14h-16c-7.7 0-14-6.3-14-14v-16c0-7.7 6.3-14 14-14h16m0-6h-16c-11 0-20 9-20 20v16c0 11 9 20 20 20h16c11 0 20-9 20-20v-16c0-11-9-20-20-20zm294-205c-9.4 0-17-7.6-17-17v-16c0-9.4 7.6-17 17-17h16c9.4 0 17 7.6 17 17v16c0 9.4-7.6 17-17 17h-16zm-5.5-33c-.9 0-1.7.2-2.5.5-1.5.7-2.6 1.9-3.1 3.4-.6 1.5-.5 3.1.2 4.6l5 11c.8 1.7 2.3 2.9 4.1 3.4.4.1.9.2 1.4.2 1.4 0 2.7-.5 3.8-1.4l22-18c2.6-2.1 2.9-5.9.8-8.4-1.1-1.4-2.8-2.2-4.6-2.2-1.4 0-2.7.5-3.8 1.4l-16 13.1-1.8-3.9c-1-2.3-3.2-3.7-5.5-3.7z"/>
  <path d="M1321 107.7c5.1 0 9.5 2.7 12 6.7-1.7-1.7-4-2.7-6.5-2.7-2.1 0-4.1.7-5.7 2l-12.9 10.6-.2-.4c-1.5-3.2-4.7-5.3-8.2-5.3-1.3 0-2.5.3-3.7.8-2.2 1-3.9 2.8-4.7 5 0 .1 0 .1-.1.2v-3c0-7.7 6.3-14 14-14h16m14 16v14c0 7.7-6.3 14-14 14h-16c-7.7 0-14-6.3-14-14v-7c.1.3.2.5.3.8l5 11c1.1 2.5 3.4 4.4 6.1 5 .7.2 1.4.2 2 .2 2.1 0 4.1-.7 5.7-2l22-18c1.4-1 2.4-2.4 2.9-4m-14-21.9h-16c-11 0-20 9-20 20v16c0 11 9 20 20 20h16c11 0 20-9 20-20v-16c0-11.1-9-20-20-20zm-15.4 32.2 19-15.5c.6-.5 1.2-.7 1.9-.7.9 0 1.7.4 2.3 1.1 1 1.3.9 3.2-.4 4.2l-22 18c-.5.4-1.2.7-1.9.7-.2 0-.5 0-.7-.1-.9-.2-1.7-.8-2-1.7l-5-11c-.7-1.5 0-3.3 1.5-4 .4-.2.8-.3 1.2-.3 1.1 0 2.2.7 2.7 1.8l3.4 7.5zm175.4 60c7.7 0 14 6.3 14 14v102c0 7.7-6.3 14-14 14h-251c-7.7 0-14-6.3-14-14v-102c0-7.7 6.3-14 14-14h251m0-6h-251c-11 0-20 9-20 20v102c0 11 9 20 20 20h251c11 0 20-9 20-20v-102c0-11-9-20-20-20z"/>
  <path d="M1442.1 306.4c-.9 0-1.7-.2-2.4-.6-.7-.4-1.3-.9-1.8-1.5s-.9-1.4-1.2-2.3-.4-1.8-.4-2.8.1-2 .4-2.8.7-1.6 1.2-2.3c.5-.6 1.1-1.1 1.8-1.5.7-.4 1.5-.5 2.4-.5s1.7.2 2.4.5c.7.4 1.3.9 1.8 1.5s.9 1.4 1.2 2.3c.3.9.4 1.8.4 2.8s-.1 2-.4 2.8c-.3.9-.7 1.6-1.2 2.3-.5.6-1.1 1.1-1.8 1.5-.8.4-1.6.6-2.4.6zm0-2.5c.5 0 .9-.1 1.3-.3s.7-.6 1-1c.3-.4.5-.9.6-1.5.1-.6.2-1.2.2-1.9s-.1-1.3-.2-1.9c-.1-.6-.3-1.1-.6-1.5-.3-.4-.6-.7-1-1s-.8-.3-1.3-.3-.9.1-1.3.3-.7.6-1 1c-.3.4-.5.9-.6 1.5s-.2 1.2-.2 1.9.1 1.3.2 1.9c.1.6.3 1.1.6 1.5s.6.7 1 1 .8.3 1.3.3zm7.1 2.2 5.9-14.3h2.6l-5.9 14.3h-2.6zm14-4.9c-.5 0-1-.1-1.5-.3s-.9-.5-1.3-.9-.7-.9-.9-1.4-.3-1.1-.3-1.8.1-1.3.4-1.9c.3-.6.6-1.1 1.1-1.5.4-.4 1-.7 1.5-1 .6-.2 1.2-.3 1.8-.3.7 0 1.4.1 2 .4.6.3 1.1.6 1.6 1 .4.4.8.9 1 1.5.2.6.3 1.2.3 1.8 0 .9-.2 1.8-.6 2.5-.4.8-.8 1.5-1.4 2.3l-3.3 4.7-2-1.4 2.8-4-.1-.1c-.3.3-.7.4-1.1.4zm.8-6.7c-.3 0-.6.1-.9.2s-.5.3-.7.5c-.2.2-.4.4-.5.7s-.2.6-.2.9c0 .3.1.6.2.9s.3.5.5.7c.2.2.5.3.7.5.3.1.6.2.9.2.3 0 .6-.1.9-.2.3-.1.5-.3.8-.5.2-.2.4-.4.5-.7s.2-.6.2-.9c0-.3-.1-.6-.2-.9s-.3-.5-.5-.7c-.2-.2-.5-.3-.8-.5-.4-.1-.6-.2-.9-.2zm12.3 11.9c-.9 0-1.7-.2-2.4-.6-.7-.4-1.3-.9-1.8-1.5s-.9-1.4-1.2-2.3c-.3-.9-.4-1.8-.4-2.8s.1-2 .4-2.8c.3-.9.7-1.6 1.2-2.3.5-.6 1.1-1.1 1.8-1.5.7-.4 1.5-.5 2.4-.5s1.7.2 2.4.5c.7.4 1.3.9 1.8 1.5s.9 1.4 1.2 2.3.4 1.8.4 2.8-.1 2-.4 2.8-.7 1.6-1.2 2.3c-.5.6-1.1 1.1-1.8 1.5-.8.4-1.6.6-2.4.6zm0-2.5c.5 0 .9-.1 1.3-.3s.7-.6 1-1c.3-.4.5-.9.6-1.5.1-.6.2-1.2.2-1.9s-.1-1.3-.2-1.9c-.1-.6-.3-1.1-.6-1.5-.3-.4-.6-.7-1-1s-.8-.3-1.3-.3-.9.1-1.3.3-.7.6-1 1c-.3.4-.5.9-.6 1.5s-.2 1.2-.2 1.9.1 1.3.2 1.9c.1.6.3 1.1.6 1.5.3.4.6.7 1 1s.8.3 1.3.3zM1481 108c7.7 0 14 6.3 14 14v16c0 7.7-6.3 14-14 14h-89.5c-7.7 0-14-6.3-14-14v-16c0-7.7 6.3-14 14-14h89.5m0-6h-89.5c-11 0-20 9-20 20v16c0 11 9 20 20 20h89.5c11 0 20-9 20-20v-16c0-11-9-20-20-20z"/>
  <path d="M1476.1 139.1c-1.2-.2-2.3-.7-3.3-1.4-1-.8-1.6-1.9-2.1-3.3l2.8-1.2c.2.7.5 1.2.9 1.8s1 .9 1.6 1.1v-4.7l-.2-.1c-.6-.2-1.2-.5-1.7-.8-.5-.3-1-.7-1.4-1.1-.4-.4-.7-.9-1-1.4s-.4-1.1-.4-1.7c0-.6.1-1.1.3-1.7.2-.5.5-1 .9-1.4s.9-.8 1.5-1c.6-.3 1.2-.4 1.9-.5v-2.1h2.2v2.2c.7.1 1.2.3 1.7.5s.9.5 1.3.8c.4.3.6.7.8 1 .2.4.4.7.5 1.1l-2.8 1.2c-.1-.3-.3-.6-.5-.9-.2-.3-.6-.5-1-.7v4.4c.7.3 1.3.6 1.9.9.6.3 1.1.7 1.5 1.1.4.4.7.8.9 1.3.2.5.3 1.1.3 1.7 0 .7-.1 1.4-.4 2-.3.6-.6 1.1-1 1.5-.4.4-.9.7-1.5 1s-1.2.4-1.8.5v2.2h-2.2v-2.3zm-1.6-12.8c0 .4.1.7.4 1s.7.6 1.2.9v-3.6c-.5.1-.9.3-1.2.6s-.4.6-.4 1.1zm5.3 7.9c0-.4-.1-.8-.3-1.1-.2-.3-.6-.6-1.2-.8v3.8c.4-.1.8-.4 1.1-.7.3-.4.4-.8.4-1.2zM1235 107.7c7.7 0 14 6.3 14 14v16c0 7.7-6.3 14-14 14H995c-7.7 0-14-6.3-14-14v-16c0-7.7 6.3-14 14-14h240m0-6H995c-11 0-20 9-20 20v16c0 11 9 20 20 20h240c11 0 20-9 20-20v-16c0-11.1-9-20-20-20z"/>
  <path d="M1225.7 139.4c-3.3 0-6.6-1.2-9-3.7-2.4-2.4-3.7-5.6-3.7-9 0-3.4 1.3-6.6 3.7-9 2.4-2.4 5.6-3.7 9-3.7s6.6 1.3 9 3.7c5 5 5 13.1 0 18.1-2.4 2.3-5.7 3.6-9 3.6zm6.9-5.9zm-6.9-13.7c-1.8 0-3.5.7-4.8 2-1.3 1.3-2 3-2 4.8 0 1.8.7 3.5 2 4.8 2.7 2.7 7 2.7 9.6 0 2.7-2.7 2.7-7 0-9.6-1.3-1.3-3-2-4.8-2z"/>
  <path d="M1209.7 145.6c-.8 0-1.5-.3-2.1-.9-1.2-1.2-1.2-3.1 0-4.2l8.5-8.5c1.2-1.2 3.1-1.2 4.2 0 1.2 1.2 1.2 3.1 0 4.2l-8.5 8.5c-.6.6-1.3.9-2.1.9zM1321 365.7c7.7 0 14 6.3 14 14v16c0 7.7-6.3 14-14 14h-240c-7.7 0-14-6.3-14-14v-16c0-7.7 6.3-14 14-14h240m0-6h-240c-11 0-20 9-20 20v16c0 11 9 20 20 20h240c11 0 20-9 20-20v-16c0-11-9-20-20-20z"/>
  <path d="m1311.9 395.8 7.6-13.3c1.1-1.9-.3-4.2-2.4-4.2h-15.3c-2.2 0-3.5 2.3-2.4 4.2l7.6 13.3c1.2 1.8 3.8 1.8 4.9 0zM1160 273.9H995c-11 0-20 9-20 20v16c0 11 9 20 20 20h165c11 0 20-9 20-20v-16c0-11-9-20-20-20zm-118.4 35.2c-.4.8-1 1.4-1.6 1.9-.7.5-1.4.8-2.2 1.1s-1.6.4-2.4.4c-.9 0-1.7-.1-2.5-.4s-1.5-.6-2.2-1.1c-.7-.5-1.2-1.1-1.7-1.8s-.9-1.5-1.1-2.5l3.6-1.4c.3 1 .7 1.8 1.4 2.5s1.5 1 2.6 1c.4 0 .8-.1 1.1-.2.4-.1.7-.3 1-.4.3-.2.5-.4.7-.7.2-.3.3-.6.3-1s-.1-.7-.2-1c-.1-.3-.4-.6-.7-.8-.3-.3-.7-.5-1.2-.8-.5-.2-1.1-.5-1.8-.8l-1.2-.4c-.5-.2-1.1-.4-1.6-.8-.6-.3-1-.7-1.5-1.1-.4-.4-.8-1-1.1-1.6-.3-.6-.4-1.3-.4-2.1s.2-1.5.5-2.2c.3-.7.7-1.3 1.3-1.8.6-.5 1.3-.9 2-1.2.8-.3 1.7-.4 2.6-.4 1 0 1.9.1 2.6.4.7.3 1.4.6 1.9 1s.9.9 1.2 1.4.6 1 .7 1.4l-3.3 1.4c-.2-.6-.5-1.1-1-1.5-.5-.4-1.2-.7-2-.7s-1.5.2-2 .6c-.5.4-.8.9-.8 1.5s.3 1.1.8 1.5c.5.4 1.4.8 2.5 1.2l1.3.4c.8.3 1.5.6 2.2 1 .7.4 1.2.8 1.7 1.3s.8 1.1 1.1 1.7c.3.6.4 1.4.4 2.2-.4 1.1-.6 2-1 2.8zm18.9-5.1c0 1.3-.2 2.4-.5 3.4s-.9 1.9-1.6 2.7c-.7.7-1.5 1.3-2.5 1.7-1 .4-2 .6-3.2.6-1.2 0-2.2-.2-3.2-.6-1-.4-1.8-.9-2.5-1.7-.7-.7-1.2-1.6-1.6-2.6-.4-1-.6-2.2-.6-3.5v-12.1h3.8v12.3c0 .7.1 1.3.3 1.8.2.6.4 1 .8 1.5.3.4.8.7 1.3 1 .5.2 1.1.3 1.7.3.7 0 1.3-.1 1.8-.3s.9-.6 1.3-1c.3-.4.6-.9.8-1.5.2-.6.3-1.2.3-1.8v-12.3h3.8V304zm17.7 4.7c-.3.7-.8 1.3-1.4 1.8-.6.5-1.3.9-2.1 1.1-.8.3-1.6.4-2.6.4h-8.1v-20.1h7.8c.9 0 1.7.1 2.4.4.7.3 1.4.6 1.9 1.1.6.5 1 1 1.3 1.7.3.6.5 1.3.5 2 0 1.1-.3 2-.8 2.7-.5.7-1.2 1.3-1.9 1.6v.2c1 .4 1.9 1 2.5 1.8.6.8.9 1.8.9 3 .2.8 0 1.6-.4 2.3zm23.4 3.3h-3.8v-9.9l.2-3.4h-.2l-5.1 9h-2.3l-5.1-9h-.2l.2 3.4v9.9h-3.7v-20.1h3.7l6.1 10.6h.2l6.1-10.6h3.8V312zm7.9 0h-3.8v-20.1h3.8V312zm17.6-16.5h-5.6V312h-3.8v-16.5h-5.6v-3.6h15v3.6z"/>
  <path d="M1073.6 299.4c.5-.5.7-1 .7-1.7s-.2-1.2-.7-1.7c-.5-.5-1.1-.7-1.9-.7h-3.9v4.8h3.8c.9 0 1.6-.3 2-.7zm-1.7 3.9h-4.1v5.2h4.2c1 0 1.7-.2 2.2-.7.5-.5.8-1.1.8-1.8s-.3-1.4-.8-1.9-1.3-.8-2.3-.8zm-229.6-23.6c12.1 0 22 9.9 22 22s-9.9 22-22 22-22-9.9-22-22 9.9-22 22-22m0-6c-15.5 0-28 12.5-28 28s12.5 28 28 28 28-12.5 28-28-12.5-28-28-28zm74.7 6c12.1 0 22 9.9 22 22s-9.9 22-22 22-22-9.9-22-22 9.9-22 22-22m0-6c-15.5 0-28 12.5-28 28s12.5 28 28 28 28-12.5 28-28-12.5-28-28-28z"/>
  <path d="M917 289.8c6.5 0 11.9 5.3 11.9 11.9s-5.3 11.9-11.9 11.9-11.9-5.3-11.9-11.9 5.4-11.9 11.9-11.9zM521.7 107.7c12.1 0 22 9.9 22 22s-9.9 22-22 22-22-9.9-22-22 9.8-22 22-22m0-6c-15.5 0-28 12.5-28 28s12.5 28 28 28 28-12.5 28-28c0-15.4-12.6-28-28-28zm74.6 6c12.1 0 22 9.9 22 22s-9.9 22-22 22-22-9.9-22-22 9.9-22 22-22m0-6c-15.5 0-28 12.5-28 28s12.5 28 28 28 28-12.5 28-28c0-15.4-12.5-28-28-28zm-149.3 6c12.1 0 22 9.9 22 22s-9.9 22-22 22-22-9.9-22-22 9.9-22 22-22m0-6c-15.5 0-28 12.5-28 28s12.5 28 28 28 28-12.5 28-28c0-15.4-12.5-28-28-28z"/>
  <path d="M447 141.6c-6.5 0-11.9-5.3-11.9-11.9 0-6.5 5.3-11.9 11.9-11.9s11.9 5.3 11.9 11.9c0 6.6-5.4 11.9-11.9 11.9zm8 138.1c7.7 0 14 6.3 14 14v16c0 7.7-6.3 14-14 14h-16c-7.7 0-14-6.3-14-14v-16c0-7.7 6.3-14 14-14h16m0-6h-16c-11 0-20 9-20 20v16c0 11 9 20 20 20h16c11 0 20-9 20-20v-16c0-11.1-9-20-20-20zM749 68.6c-9.4 0-17-7.6-17-17v-16c0-9.4 7.6-17 17-17h16c9.4 0 17 7.6 17 17v16c0 9.4-7.6 17-17 17h-16zm-5.5-33c-.9 0-1.7.2-2.5.5-1.5.7-2.6 1.9-3.1 3.4-.6 1.5-.5 3.1.2 4.6l5 11c.8 1.7 2.3 2.9 4.1 3.4.4.1.9.2 1.4.2 1.4 0 2.7-.5 3.8-1.4l22-18c2.6-2.1 2.9-5.9.8-8.4-1.1-1.4-2.8-2.2-4.6-2.2-1.4 0-2.7.5-3.8 1.4l-16 13.1-1.8-3.9c-1-2.3-3.2-3.7-5.5-3.7z"/>
  <path d="M765 21.6c5.1 0 9.5 2.7 12 6.7-1.7-1.7-4-2.7-6.5-2.7-2.1 0-4.1.7-5.7 2l-12.9 10.6-.2-.4c-1.5-3.2-4.7-5.3-8.2-5.3-1.3 0-2.5.3-3.7.8-2.2 1-3.9 2.8-4.7 5 0 .1 0 .1-.1.2v-3c0-7.7 6.3-14 14-14h16m14 16v14c0 7.7-6.3 14-14 14h-16c-7.7 0-14-6.3-14-14v-7c.1.3.2.5.3.8l5 11c1.1 2.5 3.4 4.4 6.1 5 .7.2 1.4.2 2 .2 2.1 0 4.1-.7 5.7-2l22-18c1.4-1 2.4-2.4 2.9-4m-14-21.9h-16c-11 0-20 9-20 20v16c0 11 9 20 20 20h16c11 0 20-9 20-20v-16c0-11.1-9-20-20-20zm-15.4 32.2 19-15.5c.6-.5 1.2-.7 1.9-.7.9 0 1.7.4 2.3 1.1 1 1.3.9 3.2-.4 4.2l-22 18c-.5.4-1.2.7-1.9.7-.2 0-.5 0-.7-.1-.9-.2-1.7-.8-2-1.7l-5-11c-.7-1.5 0-3.3 1.5-4 .4-.2.8-.3 1.2-.3 1.1 0 2.2.7 2.7 1.8l3.4 7.5zM776 365.6c7.7 0 14 6.3 14 14v16c0 7.7-6.3 14-14 14h-16c-7.7 0-14-6.3-14-14v-16c0-7.7 6.3-14 14-14h16m0-6h-16c-11 0-20 9-20 20v16c0 11 9 20 20 20h16c11 0 20-9 20-20v-16c0-11.1-9-20-20-20zm149 6.5c7.7 0 14 6.3 14 14v16c0 7.7-6.3 14-14 14h-16c-7.7 0-14-6.3-14-14v-16c0-7.7 6.3-14 14-14h16m0-6h-16c-11 0-20 9-20 20v16c0 11 9 20 20 20h16c11 0 20-9 20-20v-16c0-11.1-9-20-20-20zm-90.3 52.5c-9.4 0-17-7.6-17-17v-16c0-9.4 7.6-17 17-17h16c9.4 0 17 7.6 17 17v16c0 9.4-7.6 17-17 17h-16zm-5.5-33c-.9 0-1.7.2-2.5.5-3 1.4-4.4 4.9-3 7.9l5 11c.8 1.7 2.3 2.9 4.1 3.4.4.1.9.2 1.4.2 1.4 0 2.7-.5 3.8-1.4l22-18c2.6-2.1 2.9-5.9.8-8.4-1.1-1.4-2.8-2.2-4.6-2.2-1.4 0-2.7.5-3.8 1.4l-16 13.1-1.8-3.9c-.9-2.2-3.1-3.6-5.4-3.6z"/>
  <path d="M850.7 365.6c5.1 0 9.5 2.7 12 6.7-1.7-1.7-4-2.7-6.5-2.7-2.1 0-4.1.7-5.7 2l-12.9 10.6-.2-.4c-1.5-3.2-4.7-5.3-8.2-5.3-1.3 0-2.5.3-3.7.8-2.2 1-3.9 2.8-4.7 5 0 .1 0 .1-.1.2v-3c0-7.7 6.3-14 14-14h16m14 16v14c0 7.7-6.3 14-14 14h-16c-7.7 0-14-6.3-14-14v-7c.1.3.2.5.3.8l5 11c1.1 2.5 3.4 4.4 6.1 5 .7.2 1.4.2 2 .2 2.1 0 4.1-.7 5.7-2l22-18c1.4-1.1 2.3-2.5 2.9-4m-14-21.9h-16c-11 0-20 9-20 20v16c0 11 9 20 20 20h16c11 0 20-9 20-20v-16c0-11.1-9-20-20-20zm-15.4 32.2 19-15.5c.6-.5 1.2-.7 1.9-.7.9 0 1.7.4 2.3 1.1 1 1.3.9 3.2-.4 4.2l-22 18c-.5.4-1.2.7-1.9.7-.2 0-.5 0-.7-.1-.9-.2-1.7-.8-2-1.7l-5-11c-.7-1.5 0-3.3 1.5-4 .4-.2.8-.3 1.2-.3 1.1 0 2.2.7 2.7 1.8l3.4 7.5zm89.7-284c7.7 0 14 6.3 14 14v102c0 7.7-6.3 14-14 14H674c-7.7 0-14-6.3-14-14v-102c0-7.7 6.3-14 14-14h251m0-6H674c-11 0-20 9-20 20v102c0 11 9 20 20 20h251c11 0 20-9 20-20v-102c0-11-9-20-20-20z"/>
  <path d="M886.1 220.3c-.9 0-1.7-.2-2.4-.6-.7-.4-1.3-.9-1.8-1.5s-.9-1.4-1.2-2.3-.4-1.8-.4-2.8.1-2 .4-2.8.7-1.6 1.2-2.3c.5-.6 1.1-1.1 1.8-1.5.7-.4 1.5-.5 2.4-.5s1.7.2 2.4.5c.7.4 1.3.9 1.8 1.5s.9 1.4 1.2 2.3c.3.9.4 1.8.4 2.8s-.1 2-.4 2.8c-.3.9-.7 1.6-1.2 2.3-.5.6-1.1 1.1-1.8 1.5-.8.4-1.6.6-2.4.6zm0-2.5c.5 0 .9-.1 1.3-.3s.7-.6 1-1c.3-.4.5-.9.6-1.5.1-.6.2-1.2.2-1.9s-.1-1.3-.2-1.9c-.1-.6-.3-1.1-.6-1.5-.3-.4-.6-.7-1-1s-.8-.3-1.3-.3-.9.1-1.3.3-.7.6-1 1c-.3.4-.5.9-.6 1.5s-.2 1.2-.2 1.9.1 1.3.2 1.9c.1.6.3 1.1.6 1.5s.6.7 1 1 .8.3 1.3.3zm7.1 2.2 5.9-14.3h2.6l-5.9 14.3h-2.6zm14-4.9c-.5 0-1-.1-1.5-.3s-.9-.5-1.3-.9-.7-.9-.9-1.4-.3-1.1-.3-1.8.1-1.3.4-1.9c.3-.6.6-1.1 1.1-1.5.4-.4 1-.7 1.5-1 .6-.2 1.2-.3 1.8-.3.7 0 1.4.1 2 .4.6.3 1.1.6 1.6 1 .4.4.8.9 1 1.5.2.6.3 1.2.3 1.8 0 .9-.2 1.8-.6 2.5-.4.8-.8 1.5-1.4 2.3l-3.3 4.7-2-1.4 2.8-4-.1-.1c-.3.3-.7.4-1.1.4zm.8-6.7c-.3 0-.6.1-.9.2s-.5.3-.7.5c-.2.2-.4.4-.5.7s-.2.6-.2.9c0 .3.1.6.2.9s.3.5.5.7c.2.2.5.3.7.5.3.1.6.2.9.2.3 0 .6-.1.9-.2.3-.1.5-.3.8-.5.2-.2.4-.4.5-.7s.2-.6.2-.9c0-.3-.1-.6-.2-.9s-.3-.5-.5-.7c-.2-.2-.5-.3-.8-.5-.4-.1-.6-.2-.9-.2zm12.3 11.9c-.9 0-1.7-.2-2.4-.6-.7-.4-1.3-.9-1.8-1.5s-.9-1.4-1.2-2.3c-.3-.9-.4-1.8-.4-2.8s.1-2 .4-2.8c.3-.9.7-1.6 1.2-2.3.5-.6 1.1-1.1 1.8-1.5.7-.4 1.5-.5 2.4-.5s1.7.2 2.4.5c.7.4 1.3.9 1.8 1.5s.9 1.4 1.2 2.3.4 1.8.4 2.8-.1 2-.4 2.8-.7 1.6-1.2 2.3c-.5.6-1.1 1.1-1.8 1.5-.8.4-1.6.6-2.4.6zm0-2.5c.5 0 .9-.1 1.3-.3s.7-.6 1-1c.3-.4.5-.9.6-1.5.1-.6.2-1.2.2-1.9s-.1-1.3-.2-1.9c-.1-.6-.3-1.1-.6-1.5-.3-.4-.6-.7-1-1s-.8-.3-1.3-.3-.9.1-1.3.3-.7.6-1 1c-.3.4-.5.9-.6 1.5s-.2 1.2-.2 1.9.1 1.3.2 1.9c.1.6.3 1.1.6 1.5.3.4.6.7 1 1s.8.3 1.3.3zM925 21.9c7.7 0 14 6.3 14 14v16c0 7.7-6.3 14-14 14h-89.5c-7.7 0-14-6.3-14-14v-16c0-7.7 6.3-14 14-14H925m0-6h-89.5c-11 0-20 9-20 20v16c0 11 9 20 20 20H925c11 0 20-9 20-20v-16c0-11-9-20-20-20z"/>
  <path d="M920.1 53c-1.2-.2-2.3-.7-3.3-1.4-1-.8-1.6-1.9-2.1-3.3l2.8-1.2c.2.7.5 1.2.9 1.8s1 .9 1.6 1.1v-4.7l-.2-.1c-.6-.2-1.2-.5-1.7-.8-.5-.3-1-.7-1.4-1.1-.4-.4-.7-.9-1-1.4s-.4-1.1-.4-1.7c0-.6.1-1.1.3-1.7.2-.5.5-1 .9-1.4s.9-.8 1.5-1c.6-.3 1.2-.4 1.9-.5v-2.1h2.2v2.2c.7.1 1.2.3 1.7.5s.9.5 1.3.8c.4.3.6.7.8 1 .2.4.4.7.5 1.1l-2.8 1.2c-.1-.3-.3-.6-.5-.9-.2-.3-.6-.5-1-.7V43c.7.3 1.3.6 1.9.9.6.3 1.1.7 1.5 1.1.4.4.7.8.9 1.3.2.5.3 1.1.3 1.7 0 .7-.1 1.4-.4 2-.3.6-.6 1.1-1 1.5-.4.4-.9.7-1.5 1s-1.2.4-1.8.5v2.2h-2.2V53zm-1.6-12.8c0 .4.1.7.4 1s.7.6 1.2.9v-3.6c-.5.1-.9.3-1.2.6s-.4.6-.4 1.1zm5.3 7.9c0-.4-.1-.8-.3-1.1-.2-.3-.6-.6-1.2-.8V50c.4-.1.8-.4 1.1-.7.3-.4.4-.8.4-1.2zM679 21.6c7.7 0 14 6.3 14 14v16c0 7.7-6.3 14-14 14H439c-7.7 0-14-6.3-14-14v-16c0-7.7 6.3-14 14-14h240m0-6H439c-11 0-20 9-20 20v16c0 11 9 20 20 20h240c11 0 20-9 20-20v-16c0-11.1-9-20-20-20z"/>
  <path d="M669.7 53.3c-3.3 0-6.6-1.2-9-3.7-2.4-2.4-3.7-5.6-3.7-9s1.3-6.6 3.7-9c2.4-2.4 5.6-3.7 9-3.7s6.6 1.3 9 3.7c5 5 5 13.1 0 18.1-2.4 2.3-5.7 3.6-9 3.6zm6.9-5.9zm-6.9-13.7c-1.8 0-3.5.7-4.8 2-1.3 1.3-2 3-2 4.8s.7 3.5 2 4.8c2.7 2.7 7 2.7 9.6 0 2.7-2.7 2.7-7 0-9.6-1.3-1.3-3-2-4.8-2z"/>
  <path d="M653.7 59.5c-.8 0-1.5-.3-2.1-.9-1.2-1.2-1.2-3.1 0-4.2l8.5-8.5c1.2-1.2 3.1-1.2 4.2 0 1.2 1.2 1.2 3.1 0 4.2l-8.5 8.5c-.6.6-1.3.9-2.1.9zM765 279.7c7.7 0 14 6.3 14 14v16c0 7.7-6.3 14-14 14H525c-7.7 0-14-6.3-14-14v-16c0-7.7 6.3-14 14-14h240m0-6H525c-11 0-20 9-20 20v16c0 11 9 20 20 20h240c11 0 20-9 20-20v-16c0-11.1-9-20-20-20z"/>
  <path d="m755.9 309.7 7.6-13.3c1.1-1.9-.3-4.2-2.4-4.2h-15.3c-2.2 0-3.5 2.3-2.4 4.2l7.6 13.3c1.2 1.8 3.8 1.8 4.9 0zM679 365.4c7.7 0 14 6.3 14 14v16c0 7.7-6.3 14-14 14H439c-7.7 0-14-6.3-14-14v-16c0-7.7 6.3-14 14-14h240m0-6H439c-11 0-20 9-20 20v16c0 11 9 20 20 20h240c11 0 20-9 20-20v-16c0-11.1-9-20-20-20z"/>
  <path d="M447.5 383.9c1.8 0 3.4 1.6 3.4 3.5 0 2-1.5 3.5-3.4 3.5s-3.4-1.5-3.4-3.5c-.1-2 1.4-3.5 3.4-3.5zm17.4 0c1.8 0 3.4 1.6 3.4 3.5 0 2-1.5 3.5-3.4 3.5s-3.4-1.5-3.4-3.5c-.1-2 1.4-3.5 3.4-3.5zm17.4 0c1.8 0 3.4 1.6 3.4 3.5 0 2-1.5 3.5-3.4 3.5s-3.4-1.5-3.4-3.5c-.1-2 1.4-3.5 3.4-3.5zm17.4 0c1.8 0 3.4 1.6 3.4 3.5 0 2-1.5 3.5-3.4 3.5s-3.4-1.5-3.4-3.5c-.1-2 1.4-3.5 3.4-3.5zm17.4 0c1.8 0 3.4 1.6 3.4 3.5 0 2-1.5 3.5-3.4 3.5s-3.4-1.5-3.4-3.5c-.1-2 1.4-3.5 3.4-3.5zm17.4 0c1.8 0 3.4 1.6 3.4 3.5 0 2-1.5 3.5-3.4 3.5s-3.4-1.5-3.4-3.5c-.1-2 1.4-3.5 3.4-3.5zm17.4 0c1.8 0 3.4 1.6 3.4 3.5 0 2-1.5 3.5-3.4 3.5s-3.4-1.5-3.4-3.5c-.1-2 1.4-3.5 3.4-3.5z" class="st1"/>
  <path d="M604 187.8H439c-11 0-20 9-20 20v16c0 11 9 20 20 20h165c11 0 20-9 20-20v-16c0-11-9-20-20-20zM485.6 223c-.4.8-1 1.4-1.6 1.9-.7.5-1.4.8-2.2 1.1s-1.6.4-2.4.4c-.9 0-1.7-.1-2.5-.4s-1.5-.6-2.2-1.1c-.7-.5-1.2-1.1-1.7-1.8s-.9-1.5-1.1-2.5l3.6-1.4c.3 1 .7 1.8 1.4 2.5s1.5 1 2.6 1c.4 0 .8-.1 1.1-.2.4-.1.7-.3 1-.4.3-.2.5-.4.7-.7.2-.3.3-.6.3-1s-.1-.7-.2-1c-.1-.3-.4-.6-.7-.8-.3-.3-.7-.5-1.2-.8-.5-.2-1.1-.5-1.8-.8l-1.2-.4c-.5-.2-1.1-.4-1.6-.8-.6-.3-1-.7-1.5-1.1-.4-.4-.8-1-1.1-1.6-.3-.6-.4-1.3-.4-2.1s.2-1.5.5-2.2c.3-.7.7-1.3 1.3-1.8.6-.5 1.3-.9 2-1.2.8-.3 1.7-.4 2.6-.4 1 0 1.9.1 2.6.4.7.3 1.4.6 1.9 1s.9.9 1.2 1.4.6 1 .7 1.4l-3.3 1.4c-.2-.6-.5-1.1-1-1.5-.5-.4-1.2-.7-2-.7s-1.5.2-2 .6c-.5.4-.8.9-.8 1.5s.3 1.1.8 1.5c.5.4 1.4.8 2.5 1.2l1.3.4c.8.3 1.5.6 2.2 1 .7.4 1.2.8 1.7 1.3s.8 1.1 1.1 1.7c.3.6.4 1.4.4 2.2-.4 1.1-.6 2-1 2.8zm18.9-5.1c0 1.3-.2 2.4-.5 3.4s-.9 1.9-1.6 2.7c-.7.7-1.5 1.3-2.5 1.7-1 .4-2 .6-3.2.6-1.2 0-2.2-.2-3.2-.6-1-.4-1.8-.9-2.5-1.7-.7-.7-1.2-1.6-1.6-2.6-.4-1-.6-2.2-.6-3.5v-12.1h3.8v12.3c0 .7.1 1.3.3 1.8.2.6.4 1 .8 1.5.3.4.8.7 1.3 1 .5.2 1.1.3 1.7.3.7 0 1.3-.1 1.8-.3s.9-.6 1.3-1c.3-.4.6-.9.8-1.5.2-.6.3-1.2.3-1.8v-12.3h3.8v12.1zm17.7 4.7c-.3.7-.8 1.3-1.4 1.8-.6.5-1.3.9-2.1 1.1-.8.3-1.6.4-2.6.4H508v-20.1h7.8c.9 0 1.7.1 2.4.4.7.3 1.4.6 1.9 1.1.6.5 1 1 1.3 1.7.3.6.5 1.3.5 2 0 1.1-.3 2-.8 2.7-.5.7-1.2 1.3-1.9 1.6v.2c1 .4 1.9 1 2.5 1.8.6.8.9 1.8.9 3 .2.9 0 1.6-.4 2.3zm23.4 3.3h-3.8V216l.2-3.4h-.2l-5.1 9h-2.3l-5.1-9h-.2l.2 3.4v9.9h-3.7v-20.1h3.7l6.1 10.6h.2l6.1-10.6h3.8v20.1zm7.9 0h-3.8v-20.1h3.8v20.1zm17.6-16.5h-5.6v16.5h-3.8v-16.5h-5.6v-3.6h15v3.6z"/>
  <path d="M517.6 213.3c.5-.5.7-1 .7-1.7s-.2-1.2-.7-1.7c-.5-.5-1.1-.7-1.9-.7h-3.9v4.8h3.8c.9 0 1.6-.2 2-.7zm-1.7 3.9h-4.1v5.2h4.2c1 0 1.7-.2 2.2-.7.5-.5.8-1.1.8-1.8s-.3-1.4-.8-1.9-1.3-.8-2.3-.8zM2123 107.5c7.7 0 14 6.3 14 14v16c0 7.7-6.3 14-14 14h-16c-7.7 0-14-6.3-14-14v-16c0-7.7 6.3-14 14-14h16m0-6h-16c-11 0-20 9-20 20v16c0 11 9 20 20 20h16c11 0 20-9 20-20v-16c0-11.1-9-20-20-20zm310 6c7.7 0 14 6.3 14 14v16c0 7.7-6.3 14-14 14h-240c-7.7 0-14-6.3-14-14v-16c0-7.7 6.3-14 14-14h240m0-6h-240c-11 0-20 9-20 20v16c0 11 9 20 20 20h240c11 0 20-9 20-20v-16c0-11.1-9-20-20-20z"/>
  <path d="m2423.9 137.5 7.6-13.3c1.1-1.9-.3-4.2-2.4-4.2h-15.3c-2.2 0-3.5 2.3-2.4 4.2l7.6 13.3c1.2 1.9 3.8 1.9 4.9 0zm-76.9 55.7c7.7 0 14 6.3 14 14v16c0 7.7-6.3 14-14 14h-240c-7.7 0-14-6.3-14-14v-16c0-7.7 6.3-14 14-14h240m0-6h-240c-11 0-20 9-20 20v16c0 11 9 20 20 20h240c11 0 20-9 20-20v-16c0-11.1-9-20-20-20z"/>
  <path d="M2115.5 211.7c1.8 0 3.4 1.6 3.4 3.5 0 2-1.5 3.5-3.4 3.5s-3.4-1.5-3.4-3.5c-.1-2 1.4-3.5 3.4-3.5zm17.4 0c1.8 0 3.4 1.6 3.4 3.5 0 2-1.5 3.5-3.4 3.5s-3.4-1.5-3.4-3.5c-.1-2 1.4-3.5 3.4-3.5zm17.4 0c1.8 0 3.4 1.6 3.4 3.5 0 2-1.5 3.5-3.4 3.5s-3.4-1.5-3.4-3.5c-.1-2 1.4-3.5 3.4-3.5zm17.4 0c1.8 0 3.4 1.6 3.4 3.5 0 2-1.5 3.5-3.4 3.5s-3.4-1.5-3.4-3.5c-.1-2 1.4-3.5 3.4-3.5zm17.4 0c1.8 0 3.4 1.6 3.4 3.5 0 2-1.5 3.5-3.4 3.5s-3.4-1.5-3.4-3.5c-.1-2 1.4-3.5 3.4-3.5zm17.4 0c1.8 0 3.4 1.6 3.4 3.5 0 2-1.5 3.5-3.4 3.5s-3.4-1.5-3.4-3.5c-.1-2 1.4-3.5 3.4-3.5zm17.4 0c1.8 0 3.4 1.6 3.4 3.5 0 2-1.5 3.5-3.4 3.5s-3.4-1.5-3.4-3.5c-.1-2 1.4-3.5 3.4-3.5z" class="st1"/>
  <path d="M2272 15.6h-165c-11 0-20 9-20 20v16c0 11 9 20 20 20h165c11 0 20-9 20-20v-16c0-11-9-20-20-20zm-118.4 35.2c-.4.8-1 1.4-1.6 1.9-.7.5-1.4.8-2.2 1.1s-1.6.4-2.4.4c-.9 0-1.7-.1-2.5-.4s-1.5-.6-2.2-1.1c-.7-.5-1.2-1.1-1.7-1.8s-.9-1.5-1.1-2.5l3.6-1.4c.3 1 .7 1.8 1.4 2.5s1.5 1 2.6 1c.4 0 .8-.1 1.1-.2.4-.1.7-.3 1-.4.3-.2.5-.4.7-.7.2-.3.3-.6.3-1s-.1-.7-.2-1c-.1-.3-.4-.6-.7-.8-.3-.3-.7-.5-1.2-.8-.5-.2-1.1-.5-1.8-.8l-1.2-.4c-.5-.2-1.1-.4-1.6-.8-.6-.3-1-.7-1.5-1.1-.4-.4-.8-1-1.1-1.6-.3-.6-.4-1.3-.4-2.1s.2-1.5.5-2.2c.3-.7.7-1.3 1.3-1.8.6-.5 1.3-.9 2-1.2.8-.3 1.7-.4 2.6-.4 1 0 1.9.1 2.6.4.7.3 1.4.6 1.9 1s.9.9 1.2 1.4.6 1 .7 1.4l-3.3 1.4c-.2-.6-.5-1.1-1-1.5-.5-.4-1.2-.7-2-.7s-1.5.2-2 .6c-.5.4-.8.9-.8 1.5s.3 1.1.8 1.5c.5.4 1.4.8 2.5 1.2l1.3.4c.8.3 1.5.6 2.2 1 .7.4 1.2.8 1.7 1.3s.8 1.1 1.1 1.7c.3.6.4 1.4.4 2.2-.4 1.1-.6 2-1 2.8zm18.9-5.1c0 1.3-.2 2.4-.5 3.4s-.9 1.9-1.6 2.7c-.7.7-1.5 1.3-2.5 1.7-1 .4-2 .6-3.2.6-1.2 0-2.2-.2-3.2-.6-1-.4-1.8-.9-2.5-1.7-.7-.7-1.2-1.6-1.6-2.6-.4-1-.6-2.2-.6-3.5V33.6h3.8v12.3c0 .7.1 1.3.3 1.8.2.6.4 1 .8 1.5.3.4.8.7 1.3 1 .5.2 1.1.3 1.7.3.7 0 1.3-.1 1.8-.3s.9-.6 1.3-1c.3-.4.6-.9.8-1.5.2-.6.3-1.2.3-1.8V33.6h3.8v12.1zm17.7 4.7c-.3.7-.8 1.3-1.4 1.8-.6.5-1.3.9-2.1 1.1-.8.3-1.6.4-2.6.4h-8.1V33.6h7.8c.9 0 1.7.1 2.4.4.7.3 1.4.6 1.9 1.1.6.5 1 1 1.3 1.7.3.6.5 1.3.5 2 0 1.1-.3 2-.8 2.7-.5.7-1.2 1.3-1.9 1.6v.2c1 .4 1.9 1 2.5 1.8.6.8.9 1.8.9 3 .2.9 0 1.6-.4 2.3zm23.4 3.3h-3.8v-9.9l.2-3.4h-.2l-5.1 9h-2.3l-5.1-9h-.2l.2 3.4v9.9h-3.7V33.6h3.7l6.1 10.6h.2l6.1-10.6h3.8v20.1zm7.9 0h-3.8V33.6h3.8v20.1zm17.6-16.5h-5.6v16.5h-3.8V37.2h-5.6v-3.6h15v3.6z"/>
  <path d="M2185.6 41.1c.5-.5.7-1 .7-1.7s-.2-1.2-.7-1.7c-.5-.5-1.1-.7-1.9-.7h-3.9v4.8h3.8c.9 0 1.6-.2 2-.7zm-1.7 3.9h-4.1v5.2h4.2c1 0 1.7-.2 2.2-.7.5-.5.8-1.1.8-1.8s-.3-1.4-.8-1.9-1.3-.8-2.3-.8zm-229.6-23.6c12.1 0 22 9.9 22 22s-9.9 22-22 22-22-9.9-22-22 9.9-22 22-22m0-6c-15.5 0-28 12.5-28 28s12.5 28 28 28 28-12.5 28-28-12.5-28-28-28zm74.7 6c12.1 0 22 9.9 22 22s-9.9 22-22 22-22-9.9-22-22 9.9-22 22-22m0-6c-15.5 0-28 12.5-28 28s12.5 28 28 28 28-12.5 28-28-12.5-28-28-28z"/>
  <path d="M2029 31.5c6.5 0 11.9 5.3 11.9 11.9s-5.3 11.9-11.9 11.9-11.9-5.3-11.9-11.9 5.4-11.9 11.9-11.9zm-462-10.1c7.7 0 14 6.3 14 14v16c0 7.7-6.3 14-14 14h-16c-7.7 0-14-6.3-14-14v-16c0-7.7 6.3-14 14-14h16m0-6h-16c-11 0-20 9-20 20v16c0 11 9 20 20 20h16c11 0 20-9 20-20v-16c0-11.1-9-20-20-20zm321 91.9c7.7 0 14 6.3 14 14v16c0 7.7-6.3 14-14 14h-16c-7.7 0-14-6.3-14-14v-16c0-7.7 6.3-14 14-14h16m0-6h-16c-11 0-20 9-20 20v16c0 11 9 20 20 20h16c11 0 20-9 20-20v-16c0-11.1-9-20-20-20zm149 6.5c7.7 0 14 6.3 14 14v16c0 7.7-6.3 14-14 14h-16c-7.7 0-14-6.3-14-14v-16c0-7.7 6.3-14 14-14h16m0-6h-16c-11 0-20 9-20 20v16c0 11 9 20 20 20h16c11 0 20-9 20-20v-16c0-11.1-9-20-20-20zm-90.3 52.5c-9.4 0-17-7.6-17-17v-16c0-9.4 7.6-17 17-17h16c9.4 0 17 7.6 17 17v16c0 9.4-7.6 17-17 17h-16zm-5.5-33c-.9 0-1.7.2-2.5.5-3 1.4-4.4 4.9-3 7.9l5 11c.8 1.7 2.3 2.9 4.1 3.4.4.1.9.2 1.4.2 1.4 0 2.7-.5 3.8-1.4l22-18c2.6-2.1 2.9-5.9.8-8.4-1.1-1.4-2.8-2.2-4.6-2.2-1.4 0-2.7.5-3.8 1.4l-16 13.1-1.8-3.9c-.9-2.2-3.1-3.6-5.4-3.6z"/>
  <path d="M1962.7 107.3c5.1 0 9.5 2.7 12 6.7-1.7-1.7-4-2.7-6.5-2.7-2.1 0-4.1.7-5.7 2l-12.9 10.6-.2-.4c-1.5-3.2-4.7-5.3-8.2-5.3-1.3 0-2.5.3-3.7.8-2.2 1-3.9 2.8-4.7 5 0 .1 0 .1-.1.2v-3c0-7.7 6.3-14 14-14h16m14 16v14c0 7.7-6.3 14-14 14h-16c-7.7 0-14-6.3-14-14v-7c.1.3.2.5.3.8l5 11c1.1 2.5 3.4 4.4 6.1 5 .7.2 1.4.2 2 .2 2.1 0 4.1-.7 5.7-2l22-18c1.4-1 2.3-2.4 2.9-4m-14-21.9h-16c-11 0-20 9-20 20v16c0 11 9 20 20 20h16c11 0 20-9 20-20v-16c0-11.1-9-20-20-20zm-15.4 32.2 19-15.5c.6-.5 1.2-.7 1.9-.7.9 0 1.7.4 2.3 1.1 1 1.3.9 3.2-.4 4.2l-22 18c-.5.4-1.2.7-1.9.7-.2 0-.5 0-.7-.1-.9-.2-1.7-.8-2-1.7l-5-11c-.7-1.5 0-3.3 1.5-4 .4-.2.8-.3 1.2-.3 1.1 0 2.2.7 2.7 1.8l3.4 7.5zM1877 21.4c7.7 0 14 6.3 14 14v16c0 7.7-6.3 14-14 14h-240c-7.7 0-14-6.3-14-14v-16c0-7.7 6.3-14 14-14h240m0-6h-240c-11 0-20 9-20 20v16c0 11 9 20 20 20h240c11 0 20-9 20-20v-16c0-11.1-9-20-20-20z"/>
  <path d="m1867.9 51.4 7.6-13.3c1.1-1.9-.3-4.2-2.4-4.2h-15.3c-2.2 0-3.5 2.3-2.4 4.2l7.6 13.3c1.2 1.9 3.8 1.9 4.9 0zm-76.9 55.7c7.7 0 14 6.3 14 14v16c0 7.7-6.3 14-14 14h-240c-7.7 0-14-6.3-14-14v-16c0-7.7 6.3-14 14-14h240m0-6h-240c-11 0-20 9-20 20v16c0 11 9 20 20 20h240c11 0 20-9 20-20v-16c0-11.1-9-20-20-20z"/>
  <path d="M1559.5 125.6c1.8 0 3.4 1.6 3.4 3.5 0 2-1.5 3.5-3.4 3.5s-3.4-1.5-3.4-3.5c-.1-2 1.4-3.5 3.4-3.5zm17.4 0c1.8 0 3.4 1.6 3.4 3.5 0 2-1.5 3.5-3.4 3.5s-3.4-1.5-3.4-3.5c-.1-2 1.4-3.5 3.4-3.5zm17.4 0c1.8 0 3.4 1.6 3.4 3.5 0 2-1.5 3.5-3.4 3.5s-3.4-1.5-3.4-3.5c-.1-2 1.4-3.5 3.4-3.5zm17.4 0c1.8 0 3.4 1.6 3.4 3.5 0 2-1.5 3.5-3.4 3.5s-3.4-1.5-3.4-3.5c-.1-2 1.4-3.5 3.4-3.5zm17.4 0c1.8 0 3.4 1.6 3.4 3.5 0 2-1.5 3.5-3.4 3.5s-3.4-1.5-3.4-3.5c-.1-2 1.4-3.5 3.4-3.5zm17.4 0c1.8 0 3.4 1.6 3.4 3.5 0 2-1.5 3.5-3.4 3.5s-3.4-1.5-3.4-3.5c-.1-2 1.4-3.5 3.4-3.5zm17.4 0c1.8 0 3.4 1.6 3.4 3.5 0 2-1.5 3.5-3.4 3.5s-3.4-1.5-3.4-3.5c-.1-2 1.4-3.5 3.4-3.5z" class="st1"/>
  <path d="M1332 21.2c7.7 0 14 6.3 14 14v16c0 7.7-6.3 14-14 14h-16c-7.7 0-14-6.3-14-14v-16c0-7.7 6.3-14 14-14h16m0-6h-16c-11 0-20 9-20 20v16c0 11 9 20 20 20h16c11 0 20-9 20-20v-16c0-11.1-9-20-20-20zm149 6.5c7.7 0 14 6.3 14 14v16c0 7.7-6.3 14-14 14h-16c-7.7 0-14-6.3-14-14v-16c0-7.7 6.3-14 14-14h16m0-6h-16c-11 0-20 9-20 20v16c0 11 9 20 20 20h16c11 0 20-9 20-20v-16c0-11.1-9-20-20-20zm-90.3 52.5c-9.4 0-17-7.6-17-17v-16c0-9.4 7.6-17 17-17h16c9.4 0 17 7.6 17 17v16c0 9.4-7.6 17-17 17h-16zm-5.5-33c-.9 0-1.7.2-2.5.5-3 1.4-4.4 4.9-3 7.9l5 11c.8 1.7 2.3 2.9 4.1 3.4.4.1.9.2 1.4.2 1.4 0 2.7-.5 3.8-1.4l22-18c2.6-2.1 2.9-5.9.8-8.4-1.1-1.4-2.8-2.2-4.6-2.2-1.4 0-2.7.5-3.8 1.4l-16 13.1-1.8-3.9c-.9-2.2-3.1-3.6-5.4-3.6z"/>
  <path d="M1406.7 21.2c5.1 0 9.5 2.7 12 6.7-1.7-1.7-4-2.7-6.5-2.7-2.1 0-4.1.7-5.7 2l-12.9 10.6-.2-.4c-1.5-3.2-4.7-5.3-8.2-5.3-1.3 0-2.5.3-3.7.8-2.2 1-3.9 2.8-4.7 5 0 .1 0 .1-.1.2v-3c0-7.7 6.3-14 14-14h16m14 16v14c0 7.7-6.3 14-14 14h-16c-7.7 0-14-6.3-14-14v-7c.1.3.2.5.3.8l5 11c1.1 2.5 3.4 4.4 6.1 5 .7.2 1.4.2 2 .2 2.1 0 4.1-.7 5.7-2l22-18c1.4-1 2.3-2.4 2.9-4m-14-21.9h-16c-11 0-20 9-20 20v16c0 11 9 20 20 20h16c11 0 20-9 20-20v-16c0-11.1-9-20-20-20zm-15.4 32.2 19-15.5c.6-.5 1.2-.7 1.9-.7.9 0 1.7.4 2.3 1.1 1 1.3.9 3.2-.4 4.2l-22 18c-.5.4-1.2.7-1.9.7-.2 0-.5 0-.7-.1-.9-.2-1.7-.8-2-1.7l-5-11c-.7-1.5 0-3.3 1.5-4 .4-.2.8-.3 1.2-.3 1.1 0 2.2.7 2.7 1.8l3.4 7.5zM1235 21c7.7 0 14 6.3 14 14v16c0 7.7-6.3 14-14 14H995c-7.7 0-14-6.3-14-14V35c0-7.7 6.3-14 14-14h240m0-6H995c-11 0-20 9-20 20v16c0 11 9 20 20 20h240c11 0 20-9 20-20V35c0-11-9-20-20-20z"/>
  <path d="M1003.5 39.5c1.8 0 3.4 1.6 3.4 3.5 0 2-1.5 3.5-3.4 3.5s-3.4-1.5-3.4-3.5c-.1-2 1.4-3.5 3.4-3.5zm17.4 0c1.8 0 3.4 1.6 3.4 3.5 0 2-1.5 3.5-3.4 3.5s-3.4-1.5-3.4-3.5c-.1-2 1.4-3.5 3.4-3.5zm17.4 0c1.8 0 3.4 1.6 3.4 3.5 0 2-1.5 3.5-3.4 3.5s-3.4-1.5-3.4-3.5c-.1-2 1.4-3.5 3.4-3.5zm17.4 0c1.8 0 3.4 1.6 3.4 3.5 0 2-1.5 3.5-3.4 3.5s-3.4-1.5-3.4-3.5c-.1-2 1.4-3.5 3.4-3.5zm17.4 0c1.8 0 3.4 1.6 3.4 3.5 0 2-1.5 3.5-3.4 3.5s-3.4-1.5-3.4-3.5c-.1-2 1.4-3.5 3.4-3.5zm17.4 0c1.8 0 3.4 1.6 3.4 3.5 0 2-1.5 3.5-3.4 3.5s-3.4-1.5-3.4-3.5c-.1-2 1.4-3.5 3.4-3.5zm17.4 0c1.8 0 3.4 1.6 3.4 3.5 0 2-1.5 3.5-3.4 3.5s-3.4-1.5-3.4-3.5c-.1-2 1.4-3.5 3.4-3.5z" class="st1"/>
  <path d="M193 413c-9.4 0-17-7.6-17-17v-16c0-9.4 7.6-17 17-17h16c9.4 0 17 7.6 17 17v16c0 9.4-7.6 17-17 17h-16zm-5.5-33c-.9 0-1.7.2-2.5.5-1.5.7-2.6 1.9-3.1 3.4-.6 1.5-.5 3.1.2 4.6l5 11c.8 1.7 2.3 2.9 4.1 3.4.4.1.9.2 1.4.2 1.4 0 2.7-.5 3.8-1.4l22-18c2.6-2.1 2.9-5.9.8-8.4-1.1-1.4-2.8-2.2-4.6-2.2-1.4 0-2.7.5-3.8 1.4l-16 13.1-1.8-3.9c-1-2.3-3.2-3.7-5.5-3.7z"/>
  <path d="M209 366c5.1 0 9.5 2.7 12 6.7-1.7-1.7-4-2.7-6.5-2.7-2.1 0-4.1.7-5.7 2l-12.9 10.6-.2-.4c-1.5-3.2-4.7-5.3-8.2-5.3-1.3 0-2.5.3-3.7.8-2.2 1-3.9 2.8-4.7 5 0 .1 0 .1-.1.2v-3c0-7.7 6.3-14 14-14h16m14 16v14c0 7.7-6.3 14-14 14h-16c-7.7 0-14-6.3-14-14v-7c.1.3.2.5.3.8l5 11c1.1 2.5 3.4 4.4 6.1 5 .7.2 1.4.2 2 .2 2.1 0 4.1-.7 5.7-2l22-18c1.4-1.1 2.4-2.5 2.9-4M209 360h-16c-11 0-20 9-20 20v16c0 11 9 20 20 20h16c11 0 20-9 20-20v-16c0-11.1-9-20-20-20zm-15.4 32.2 19-15.5c.6-.5 1.2-.7 1.9-.7.9 0 1.7.4 2.3 1.1 1 1.3.9 3.2-.4 4.2l-22 18c-.5.4-1.2.7-1.9.7-.2 0-.5 0-.7-.1-.9-.2-1.7-.8-2-1.7l-5-11c-.7-1.5 0-3.3 1.5-4 .4-.2.8-.3 1.2-.3 1.1 0 2.2.7 2.7 1.8l3.4 7.5zM369 366.3c7.7 0 14 6.3 14 14v16c0 7.7-6.3 14-14 14h-89.5c-7.7 0-14-6.3-14-14v-16c0-7.7 6.3-14 14-14H369m0-6h-89.5c-11 0-20 9-20 20v16c0 11 9 20 20 20H369c11 0 20-9 20-20v-16c0-11-9-20-20-20z"/>
  <path d="M364.1 397.4c-1.2-.2-2.3-.7-3.3-1.4-1-.8-1.6-1.9-2.1-3.3l2.8-1.2c.2.7.5 1.2.9 1.8s1 .9 1.6 1.1v-4.7l-.2-.1c-.6-.2-1.2-.5-1.7-.8-.5-.3-1-.7-1.4-1.1-.4-.4-.7-.9-1-1.4s-.4-1.1-.4-1.7c0-.6.1-1.1.3-1.7.2-.5.5-1 .9-1.4s.9-.8 1.5-1c.6-.3 1.2-.4 1.9-.5v-2.1h2.2v2.2c.7.1 1.2.3 1.7.5s.9.5 1.3.8c.4.3.6.7.8 1 .2.4.4.7.5 1.1l-2.8 1.2c-.1-.3-.3-.6-.5-.9-.2-.3-.6-.5-1-.7v4.4c.7.3 1.3.6 1.9.9.6.3 1.1.7 1.5 1.1.4.4.7.8.9 1.3.2.5.3 1.1.3 1.7 0 .7-.1 1.4-.4 2-.3.6-.6 1.1-1 1.5-.4.4-.9.7-1.5 1s-1.2.4-1.8.5v2.2h-2.2v-2.3zm-1.6-12.9c0 .4.1.7.4 1s.7.6 1.2.9v-3.6c-.5.1-.9.3-1.2.6s-.4.7-.4 1.1zm5.3 8c0-.4-.1-.8-.3-1.1-.2-.3-.6-.6-1.2-.8v3.8c.4-.1.8-.4 1.1-.7.3-.4.4-.8.4-1.2zM123 366c7.7 0 14 6.3 14 14v16c0 7.7-6.3 14-14 14h-240c-7.7 0-14-6.3-14-14v-16c0-7.7 6.3-14 14-14h240m0-6h-240c-11 0-20 9-20 20v16c0 11 9 20 20 20h240c11 0 20-9 20-20v-16c0-11.1-9-20-20-20z"/>
  <path d="M113.7 397.7c-3.3 0-6.6-1.2-9-3.7-2.4-2.4-3.7-5.6-3.7-9s1.3-6.6 3.7-9c2.4-2.4 5.6-3.7 9-3.7s6.6 1.3 9 3.7c5 5 5 13.1 0 18.1-2.4 2.3-5.7 3.6-9 3.6zm6.9-5.9zm-6.9-13.7c-1.8 0-3.5.7-4.8 2-1.3 1.3-2 3-2 4.8s.7 3.5 2 4.8c2.7 2.7 7 2.7 9.6 0 2.7-2.7 2.7-7 0-9.6-1.3-1.3-3-2-4.8-2z"/>
  <path d="M97.7 403.9c-.8 0-1.5-.3-2.1-.9-1.2-1.2-1.2-3.1 0-4.2l8.5-8.5c1.2-1.2 3.1-1.2 4.2 0 1.2 1.2 1.2 3.1 0 4.2l-8.5 8.5c-.6.6-1.3.9-2.1.9zm188.6-210.3c12.1 0 22 9.9 22 22s-9.9 22-22 22-22-9.9-22-22 9.9-22 22-22m0-6c-15.5 0-28 12.5-28 28s12.5 28 28 28 28-12.5 28-28-12.5-28-28-28zm74.7 6c12.1 0 22 9.9 22 22s-9.9 22-22 22-22-9.9-22-22 9.9-22 22-22m0-6c-15.5 0-28 12.5-28 28s12.5 28 28 28 28-12.5 28-28-12.5-28-28-28z"/>
  <path d="M361 203.7c6.5 0 11.9 5.3 11.9 11.9s-5.3 11.9-11.9 11.9-11.9-5.3-11.9-11.9 5.4-11.9 11.9-11.9zM-34.3 21.6c12.1 0 22 9.9 22 22s-9.9 22-22 22-22-9.9-22-22 9.8-22 22-22m0-6c-15.5 0-28 12.5-28 28s12.5 28 28 28 28-12.5 28-28c0-15.4-12.6-28-28-28zm74.6 6c12.1 0 22 9.9 22 22s-9.9 22-22 22-22-9.9-22-22 9.9-22 22-22m0-6c-15.5 0-28 12.5-28 28s12.5 28 28 28 28-12.5 28-28c0-15.4-12.5-28-28-28zm-149.3 6c12.1 0 22 9.9 22 22s-9.9 22-22 22-22-9.9-22-22 9.9-22 22-22m0-6c-15.5 0-28 12.5-28 28s12.5 28 28 28 28-12.5 28-28c0-15.4-12.5-28-28-28z"/>
  <path d="M-109 55.5c-6.5 0-11.9-5.3-11.9-11.9s5.3-11.9 11.9-11.9 11.9 5.3 11.9 11.9-5.4 11.9-11.9 11.9zm8 138.1c7.7 0 14 6.3 14 14v16c0 7.7-6.3 14-14 14h-16c-7.7 0-14-6.3-14-14v-16c0-7.7 6.3-14 14-14h16m0-6h-16c-11 0-20 9-20 20v16c0 11 9 20 20 20h16c11 0 20-9 20-20v-16c0-11.1-9-20-20-20zm321 91.9c7.7 0 14 6.3 14 14v16c0 7.7-6.3 14-14 14h-16c-7.7 0-14-6.3-14-14v-16c0-7.7 6.3-14 14-14h16m0-6h-16c-11 0-20 9-20 20v16c0 11 9 20 20 20h16c11 0 20-9 20-20v-16c0-11.1-9-20-20-20zm149 6.5c7.7 0 14 6.3 14 14v16c0 7.7-6.3 14-14 14h-16c-7.7 0-14-6.3-14-14v-16c0-7.7 6.3-14 14-14h16m0-6h-16c-11 0-20 9-20 20v16c0 11 9 20 20 20h16c11 0 20-9 20-20v-16c0-11.1-9-20-20-20zm-90.3 52.5c-9.4 0-17-7.6-17-17v-16c0-9.4 7.6-17 17-17h16c9.4 0 17 7.6 17 17v16c0 9.4-7.6 17-17 17h-16zm-5.5-33c-.9 0-1.7.2-2.5.5-3 1.4-4.4 4.9-3 7.9l5 11c.8 1.7 2.3 2.9 4.1 3.4.4.1.9.2 1.4.2 1.4 0 2.7-.5 3.8-1.4l22-18c2.6-2.1 2.9-5.9.8-8.4-1.1-1.4-2.8-2.2-4.6-2.2-1.4 0-2.7.5-3.8 1.4l-16 13.1-1.8-3.9c-.9-2.2-3.1-3.6-5.4-3.6z"/>
  <path d="M294.7 279.5c5.1 0 9.5 2.7 12 6.7-1.7-1.7-4-2.7-6.5-2.7-2.1 0-4.1.7-5.7 2l-12.9 10.6-.2-.4c-1.5-3.2-4.7-5.3-8.2-5.3-1.3 0-2.5.3-3.7.8-2.2 1-3.9 2.8-4.7 5 0 .1 0 .1-.1.2v-3c0-7.7 6.3-14 14-14h16m14 16v14c0 7.7-6.3 14-14 14h-16c-7.7 0-14-6.3-14-14v-7c.1.3.2.5.3.8l5 11c1.1 2.5 3.4 4.4 6.1 5 .7.2 1.4.2 2 .2 2.1 0 4.1-.7 5.7-2l22-18c1.4-1.1 2.3-2.5 2.9-4m-14-21.9h-16c-11 0-20 9-20 20v16c0 11 9 20 20 20h16c11 0 20-9 20-20v-16c0-11.1-9-20-20-20zm-15.4 32.2 19-15.5c.6-.5 1.2-.7 1.9-.7.9 0 1.7.4 2.3 1.1 1 1.3.9 3.2-.4 4.2l-22 18c-.5.4-1.2.7-1.9.7-.2 0-.5 0-.7-.1-.9-.2-1.7-.8-2-1.7l-5-11c-.7-1.5 0-3.3 1.5-4 .4-.2.8-.3 1.2-.3 1.1 0 2.2.7 2.7 1.8l3.4 7.5zm89.7-284c7.7 0 14 6.3 14 14v102c0 7.7-6.3 14-14 14H118c-7.7 0-14-6.3-14-14v-102c0-7.7 6.3-14 14-14h251m0-6H118c-11 0-20 9-20 20v102c0 11 9 20 20 20h251c11 0 20-9 20-20v-102c0-11-9-20-20-20z"/>
  <path d="M330.1 134.2c-.9 0-1.7-.2-2.4-.6-.7-.4-1.3-.9-1.8-1.5s-.9-1.4-1.2-2.3-.4-1.8-.4-2.8c0-1 .1-2 .4-2.8s.7-1.6 1.2-2.3c.5-.6 1.1-1.1 1.8-1.5.7-.4 1.5-.5 2.4-.5s1.7.2 2.4.5c.7.4 1.3.9 1.8 1.5s.9 1.4 1.2 2.3c.3.9.4 1.8.4 2.8 0 1-.1 2-.4 2.8-.3.9-.7 1.6-1.2 2.3-.5.6-1.1 1.1-1.8 1.5-.8.4-1.6.6-2.4.6zm0-2.4c.5 0 .9-.1 1.3-.3s.7-.6 1-1c.3-.4.5-.9.6-1.5.1-.6.2-1.2.2-1.9s-.1-1.3-.2-1.9c-.1-.6-.3-1.1-.6-1.5-.3-.4-.6-.7-1-1s-.8-.3-1.3-.3-.9.1-1.3.3-.7.6-1 1c-.3.4-.5.9-.6 1.5s-.2 1.2-.2 1.9.1 1.3.2 1.9c.1.6.3 1.1.6 1.5s.6.7 1 1 .8.3 1.3.3zm7.1 2.1 5.9-14.3h2.6l-5.9 14.3h-2.6zm14-4.9c-.5 0-1-.1-1.5-.3s-.9-.5-1.3-.9-.7-.9-.9-1.4-.3-1.1-.3-1.8.1-1.3.4-1.9c.3-.6.6-1.1 1.1-1.5.4-.4 1-.7 1.5-1 .6-.2 1.2-.3 1.8-.3.7 0 1.4.1 2 .4.6.3 1.1.6 1.6 1 .4.4.8.9 1 1.5.2.6.3 1.2.3 1.8 0 .9-.2 1.8-.6 2.5-.4.8-.8 1.5-1.4 2.3l-3.3 4.7-2-1.4 2.8-4-.1-.1c-.3.3-.7.4-1.1.4zm.8-6.7c-.3 0-.6.1-.9.2s-.5.3-.7.5c-.2.2-.4.4-.5.7s-.2.6-.2.9c0 .3.1.6.2.9s.3.5.5.7c.2.2.5.3.7.5.3.1.6.2.9.2.3 0 .6-.1.9-.2.3-.1.5-.3.8-.5.2-.2.4-.4.5-.7s.2-.6.2-.9c0-.3-.1-.6-.2-.9s-.3-.5-.5-.7c-.2-.2-.5-.3-.8-.5-.4-.1-.6-.2-.9-.2zm12.3 11.9c-.9 0-1.7-.2-2.4-.6-.7-.4-1.3-.9-1.8-1.5s-.9-1.4-1.2-2.3c-.3-.9-.4-1.8-.4-2.8 0-1 .1-2 .4-2.8.3-.9.7-1.6 1.2-2.3.5-.6 1.1-1.1 1.8-1.5.7-.4 1.5-.5 2.4-.5s1.7.2 2.4.5c.7.4 1.3.9 1.8 1.5s.9 1.4 1.2 2.3.4 1.8.4 2.8c0 1-.1 2-.4 2.8s-.7 1.6-1.2 2.3c-.5.6-1.1 1.1-1.8 1.5-.8.4-1.6.6-2.4.6zm0-2.4c.5 0 .9-.1 1.3-.3s.7-.6 1-1c.3-.4.5-.9.6-1.5.1-.6.2-1.2.2-1.9s-.1-1.3-.2-1.9c-.1-.6-.3-1.1-.6-1.5-.3-.4-.6-.7-1-1s-.8-.3-1.3-.3-.9.1-1.3.3-.7.6-1 1c-.3.4-.5.9-.6 1.5s-.2 1.2-.2 1.9.1 1.3.2 1.9c.1.6.3 1.1.6 1.5.3.4.6.7 1 1s.8.3 1.3.3zM209 193.6c7.7 0 14 6.3 14 14v16c0 7.7-6.3 14-14 14H-31c-7.7 0-14-6.3-14-14v-16c0-7.7 6.3-14 14-14h240m0-6H-31c-11 0-20 9-20 20v16c0 11 9 20 20 20h240c11 0 20-9 20-20v-16c0-11.1-9-20-20-20z"/>
  <path d="m199.9 223.6 7.6-13.3c1.1-1.9-.3-4.2-2.4-4.2h-15.3c-2.2 0-3.5 2.3-2.4 4.2l7.6 13.3c1.2 1.9 3.8 1.9 4.9 0zM123 279.3c7.7 0 14 6.3 14 14v16c0 7.7-6.3 14-14 14h-240c-7.7 0-14-6.3-14-14v-16c0-7.7 6.3-14 14-14h240m0-6h-240c-11 0-20 9-20 20v16c0 11 9 20 20 20h240c11 0 20-9 20-20v-16c0-11.1-9-20-20-20z"/>
  <path d="M-108.5 297.8c1.8 0 3.4 1.6 3.4 3.5 0 2-1.5 3.5-3.4 3.5s-3.4-1.5-3.4-3.5c-.1-2 1.4-3.5 3.4-3.5zm17.4 0c1.8 0 3.4 1.6 3.4 3.5 0 2-1.5 3.5-3.4 3.5s-3.4-1.5-3.4-3.5c-.1-2 1.4-3.5 3.4-3.5zm17.4 0c1.8 0 3.4 1.6 3.4 3.5 0 2-1.5 3.5-3.4 3.5s-3.4-1.5-3.4-3.5c-.1-2 1.4-3.5 3.4-3.5zm17.4 0c1.8 0 3.4 1.6 3.4 3.5 0 2-1.5 3.5-3.4 3.5s-3.4-1.5-3.4-3.5c-.1-2 1.4-3.5 3.4-3.5zm17.4 0c1.8 0 3.4 1.6 3.4 3.5 0 2-1.5 3.5-3.4 3.5s-3.4-1.5-3.4-3.5c-.1-2 1.4-3.5 3.4-3.5zm17.4 0c1.8 0 3.4 1.6 3.4 3.5 0 2-1.5 3.5-3.4 3.5s-3.4-1.5-3.4-3.5c-.1-2 1.4-3.5 3.4-3.5zm17.4 0c1.8 0 3.4 1.6 3.4 3.5 0 2-1.5 3.5-3.4 3.5s-3.4-1.5-3.4-3.5c-.1-2 1.4-3.5 3.4-3.5z" class="st1"/>
  <path d="M48 101.7h-165c-11 0-20 9-20 20v16c0 11 9 20 20 20H48c11 0 20-9 20-20v-16c0-11-9-20-20-20zm-118.4 35.2c-.4.8-1 1.4-1.6 1.9-.7.5-1.4.8-2.2 1.1s-1.6.4-2.4.4c-.9 0-1.7-.1-2.5-.4s-1.5-.6-2.2-1.1c-.7-.5-1.2-1.1-1.7-1.8s-.9-1.5-1.1-2.5l3.6-1.4c.3 1 .7 1.8 1.4 2.5s1.5 1 2.6 1c.4 0 .8-.1 1.1-.2.4-.1.7-.3 1-.4.3-.2.5-.4.7-.7.2-.3.3-.6.3-1s-.1-.7-.2-1c-.1-.3-.4-.6-.7-.8-.3-.3-.7-.5-1.2-.8-.5-.2-1.1-.5-1.8-.8l-1.2-.4c-.5-.2-1.1-.4-1.6-.8-.6-.3-1-.7-1.5-1.1-.4-.4-.8-1-1.1-1.6-.3-.6-.4-1.3-.4-2.1s.2-1.5.5-2.2c.3-.7.7-1.3 1.3-1.8.6-.5 1.3-.9 2-1.2.8-.3 1.7-.4 2.6-.4 1 0 1.9.1 2.6.4.7.3 1.4.6 1.9 1s.9.9 1.2 1.4.6 1 .7 1.4l-3.3 1.4c-.2-.6-.5-1.1-1-1.5-.5-.4-1.2-.7-2-.7s-1.5.2-2 .6c-.5.4-.8.9-.8 1.5s.3 1.1.8 1.5c.5.4 1.4.8 2.5 1.2l1.3.4c.8.3 1.5.6 2.2 1 .7.4 1.2.8 1.7 1.3s.8 1.1 1.1 1.7c.3.6.4 1.4.4 2.2-.4 1.1-.6 2-1 2.8zm18.9-5.1c0 1.3-.2 2.4-.5 3.4s-.9 1.9-1.6 2.7c-.7.7-1.5 1.3-2.5 1.7-1 .4-2 .6-3.2.6-1.2 0-2.2-.2-3.2-.6-1-.4-1.8-.9-2.5-1.7-.7-.7-1.2-1.6-1.6-2.6-.4-1-.6-2.2-.6-3.5v-12.1h3.8V132c0 .7.1 1.3.3 1.8.2.6.4 1 .8 1.5.3.4.8.7 1.3 1 .5.2 1.1.3 1.7.3.7 0 1.3-.1 1.8-.3s.9-.6 1.3-1c.3-.4.6-.9.8-1.5.2-.6.3-1.2.3-1.8v-12.3h3.8v12.1zm17.7 4.7c-.3.7-.8 1.3-1.4 1.8-.6.5-1.3.9-2.1 1.1-.8.3-1.6.4-2.6.4H-48v-20.1h7.8c.9 0 1.7.1 2.4.4.7.3 1.4.6 1.9 1.1.6.5 1 1 1.3 1.7.3.6.5 1.3.5 2 0 1.1-.3 2-.8 2.7-.5.7-1.2 1.3-1.9 1.6v.2c1 .4 1.9 1 2.5 1.8.6.8.9 1.8.9 3 .2.9 0 1.6-.4 2.3zm23.4 3.3h-3.8v-9.9l.2-3.4h-.2l-5.1 9h-2.3l-5.1-9h-.2l.2 3.4v9.9h-3.7v-20.1h3.7l6.1 10.6h.2l6.1-10.6h3.8v20.1zm7.9 0h-3.8v-20.1h3.8v20.1zm17.6-16.5H9.5v16.5H5.7v-16.5H.1v-3.6h15v3.6z"/>
  <path d="M-38.4 127.2c.5-.5.7-1 .7-1.7s-.2-1.2-.7-1.7c-.5-.5-1.1-.7-1.9-.7h-3.9v4.8h3.8c.9 0 1.6-.2 2-.7zm-1.7 3.9h-4.1v5.2h4.2c1 0 1.7-.2 2.2-.7.5-.5.8-1.1.8-1.8s-.3-1.4-.8-1.9-1.3-.8-2.3-.8z"/>
</svg>